<svg width="24" height="24" viewBox="0 0 24 24" fill="none" xmlns="http://www.w3.org/2000/svg">
  <!-- Speaker body with rounded corners -->
  <path d="M5 9C5 8.44772 5.44772 8 6 8H8.586L13.293 3.293C13.9229 2.66304 15 3.11096 15 4V20C15 20.889 13.9229 21.337 13.293 20.707L8.586 16H6C5.44772 16 5 15.5523 5 15V9Z" fill="currentColor"/>
  
  <!-- Rounded sound waves -->
  <path d="M17.5 8.5C18.3284 9.32843 18.8284 10.5 18.8284 12C18.8284 13.5 18.3284 14.6716 17.5 15.5" stroke="currentColor" stroke-width="1.5" stroke-linecap="round"/>
  <path d="M19.5 6.5C21.1667 8.16667 22 10 22 12C22 14 21.1667 15.8333 19.5 17.5" stroke="currentColor" stroke-width="1.5" stroke-linecap="round"/>
</svg>